<svg xmlns="http://www.w3.org/2000/svg" width="989.845947265625" height="625.2535400390625" viewBox="-520.8195190429688 -186.96852111816406 989.845947265625 625.2535400390625"><title>Neo4j Graph Visualization</title><desc>Created using Neo4j (http://www.neo4j.com/)</desc><g class="layer relationships"><g class="relationship" transform="translate(8.575715379364212 91.99928400887649) rotate(264.38763724500643)"><path class="outline" fill="#A5ABB6" stroke="none" d="M 31.26317983184346,-8.894581878976458 L 31.52199887694598,-7.92865605268739 A 363.6831405842805 363.6831405842805 0 0 1 117.73829336061117,-20.23478852587192 L 117.7165386301897,-21.23455186371956 A 364.6831405842805 364.6831405842805 0 0 0 31.26317983184346,-8.894581878976458 Z M 133.96012230389584,-21.226166671754186 L 133.93733539839832,-20.226426326995693 A 363.6831405842805 363.6831405842805 0 0 1 220.14087869973204,-7.831288036652602 L 219.36143022292,-4.934313740598973 L 227.0303934699925,-6.495403973433487 L 221.1801433354814,-11.693920431390772 L 220.40069485866937,-8.796946135337144 A 364.6831405842805 364.6831405842805 0 0 0 133.96012230389584,-21.226166671754186"/><text text-anchor="middle" pointer-events="none" font-size="8px" fill="#000000" x="125.83811905132403" y="-17.820810037198385" transform="rotate(180 125.83811905132403 -20.820810037198385)" font-family="sans-serif">TX</text></g><g class="relationship" transform="translate(8.575715379364212 91.99928400887649) rotate(264.38763724500643)"><path class="outline" fill="#A5ABB6" stroke="none" d="M 31.26317983184346,8.894581878976458 L 31.52199887694598,7.92865605268739 A 363.6831405842805 363.6831405842805 0 0 0 117.2937035154684,20.224842356031957 L 117.2707263202265,21.224578345430587 A 364.6831405842805 364.6831405842805 0 0 1 31.26317983184346,8.894581878976458 Z M 134.40592407929086,21.21573288832826 L 134.3819147378598,20.2160211541148 A 363.6831405842805 363.6831405842805 0 0 0 220.14087869973204,7.831288036652602 L 219.36143022292,4.934313740598973 L 227.0303934699925,6.495403973433487 L 221.1801433354814,11.693920431390772 L 220.40069485866937,8.796946135337144 A 364.6831405842805 364.6831405842805 0 0 1 134.40592407929086,21.21573288832826"/><text text-anchor="middle" pointer-events="none" font-size="8px" fill="#000000" x="125.83811905132411" y="23.820810037198385" transform="rotate(180 125.83811905132411 20.820810037198385)" font-family="sans-serif">RX</text></g><g class="relationship" transform="translate(-15.988298005326243 -157.96852479435728) rotate(520.5376561904701)"><path class="outline" fill="#A5ABB6" stroke="none" d="M 25 0.5 L 34.614485067892105 0.5 L 34.614485067892105 -0.5 L 25 -0.5 Z M 90.2551100678921 0.5 L 99.86959513578421 0.5 L 99.86959513578421 3.5 L 106.86959513578421 0 L 99.86959513578421 -3.5 L 99.86959513578421 -0.5 L 90.2551100678921 -0.5 Z"/><text text-anchor="middle" pointer-events="none" font-size="8px" fill="#000000" x="62.434797567892105" y="3" transform="rotate(180 62.434797567892105 0)" font-family="sans-serif">SUPPORTED</text></g><g class="relationship" transform="translate(-373.3436102504751 208.94237004427873) rotate(262.3002821048198)"><path class="outline" fill="#A5ABB6" stroke="none" d="M 27.89582562299426,-16.683012701892217 L 28.39582562299426,-15.816987298107778 A 217.68279297612327 217.68279297612327 0 0 1 104.33623568790591,-42.48022908058198 L 104.18509380859918,-43.468741160588905 A 218.68279297612327 218.68279297612327 0 0 0 27.89582562299426,-16.683012701892217 Z M 159.48993810029341,-44.8458098882808 L 159.38818013531412,-43.85100070227412 A 217.68279297612327 217.68279297612327 0 0 1 236.56146952299235,-21.000229418501657 L 235.19263031359975,-18.33072024660705 L 243.0184641256452,-18.251189458568025 L 238.38658846884914,-24.5595749810278 L 237.01774925945654,-21.890065809133194 A 218.68279297612327 218.68279297612327 0 0 0 159.48993810029341,-44.8458098882808"/><text text-anchor="middle" pointer-events="none" font-size="8px" fill="#000000" x="131.80624026157366" y="-42.41334741805434" transform="rotate(180 131.80624026157366 -45.41334741805434)" font-family="sans-serif">SCHEDULED</text></g><g class="relationship" transform="translate(-168.2321665615043 319.28737188904574) rotate(237.89746858724862)"><path class="outline" fill="#A5ABB6" stroke="none" d="M 40 0.5 L 196.92730328480238 0.5 L 196.92730328480238 -0.5 L 40 -0.5 Z M 252.27105328480238 0.5 L 409.19835656960475 0.5 L 409.19835656960475 3.5 L 416.19835656960475 0 L 409.19835656960475 -3.5 L 409.19835656960475 -0.5 L 252.27105328480238 -0.5 Z"/><text text-anchor="middle" pointer-events="none" font-size="8px" fill="#000000" x="224.59917828480238" y="3" transform="rotate(180 224.59917828480238 0)" font-family="sans-serif">SCHEDULED</text></g><g class="relationship" transform="translate(-168.2321665615043 319.28737188904574) rotate(208.27917808081048)"><path class="outline" fill="#A5ABB6" stroke="none" d="M 34.39101615137755,20.433012701892217 L 34.89101615137755,19.566987298107776 A 163.29789581554215 163.29789581554215 0 0 0 89.25672042289048,39.14943066483711 L 89.08964390607439,40.135374597081025 A 164.29789581554215 164.29789581554215 0 0 1 34.39101615137755,20.433012701892217 Z M 144.3386183065731,40.075961028110484 L 144.16942165247454,39.090378716864066 A 163.29789581554215 163.29789581554215 0 0 0 198.49288314750285,19.39105333889932 L 196.98729879176332,16.796209268872683 L 204.79845003685492,16.310497187178207 L 200.50032895515554,22.85084543226817 L 198.994744599416,20.256001362241534 A 164.29789581554215 164.29789581554215 0 0 1 144.3386183065731,40.075961028110484"/><text text-anchor="middle" pointer-events="none" font-size="8px" fill="#000000" x="116.71610872171914" y="44.94466224176615" transform="rotate(180 116.71610872171914 41.94466224176615)" font-family="sans-serif">SCHEDULED</text></g><g class="relationship" transform="translate(-373.3436102504751 208.94237004427873) rotate(356.7844540868128)"><path class="outline" fill="#A5ABB6" stroke="none" d="M 8.894581878976458 31.263179831843463 L 19.247343683077286 69.90021288340618 A 19.926316451256394 19.926316451256394 0 1 1 -19.247343683077286 69.90021288340618 L -10.706315194694104 38.024660615866935 L -6.842611889537831 39.05993679627702 L -8.411618965831924 31.392589354394723 L -13.60409267356131 37.248203480559376 L -9.740389368405035 38.283479660969455 L -18.28141785678822 70.15903192850871 A 18.926316451256394 18.926316451256394 0 1 0 18.28141785678822 70.15903192850871 L 7.92865605268739 31.521998876945982 Z"/><text text-anchor="middle" pointer-events="none" font-size="8px" fill="#000000" x="0" y="103.98383953098741" font-family="sans-serif">SCHEDULED</text></g><g class="relationship" transform="translate(8.575715379364212 91.99928400887649) rotate(487.87942181566405)"><path class="outline" fill="#A5ABB6" stroke="none" d="M 32.5 0.5 L 122.46822951419375 0.5 L 122.46822951419375 -0.5 L 32.5 -0.5 Z M 150.99166701419375 0.5 L 240.9598965283875 0.5 L 240.9598965283875 3.5 L 247.9598965283875 0 L 240.9598965283875 -3.5 L 240.9598965283875 -0.5 L 150.99166701419375 -0.5 Z"/><text text-anchor="middle" pointer-events="none" font-size="8px" fill="#000000" x="136.72994826419375" y="3" transform="rotate(180 136.72994826419375 0)" font-family="sans-serif">TOOK</text></g><g class="relationship" transform="translate(8.575715379364212 91.99928400887649) rotate(200.78798565253987)"><path class="outline" fill="#A5ABB6" stroke="none" d="M 32.5 0.5 L 202.70908644042714 0.5 L 202.70908644042714 -0.5 L 32.5 -0.5 Z M 231.23252394042714 0.5 L 401.4416103808543 0.5 L 401.4416103808543 3.5 L 408.4416103808543 0 L 401.4416103808543 -3.5 L 401.4416103808543 -0.5 L 231.23252394042714 -0.5 Z"/><text text-anchor="middle" pointer-events="none" font-size="8px" fill="#000000" x="216.97080519042714" y="3" transform="rotate(180 216.97080519042714 0)" font-family="sans-serif">TOOK</text></g><g class="relationship" transform="translate(8.575715379364212 91.99928400887649) rotate(522.9754957137172)"><path class="outline" fill="#A5ABB6" stroke="none" d="M 32.5 0.5 L 181.94935797149455 0.5 L 181.94935797149455 -0.5 L 32.5 -0.5 Z M 210.47279547149455 0.5 L 359.9221534429891 0.5 L 359.9221534429891 3.5 L 366.9221534429891 0 L 359.9221534429891 -3.5 L 359.9221534429891 -0.5 L 210.47279547149455 -0.5 Z"/><text text-anchor="middle" pointer-events="none" font-size="8px" fill="#000000" x="196.21107672149455" y="3" transform="rotate(180 196.21107672149455 0)" font-family="sans-serif">TOOK</text></g><g class="relationship" transform="translate(8.575715379364212 91.99928400887649) rotate(450.46774398073734)"><path class="outline" fill="#A5ABB6" stroke="none" d="M 32.5 0.5 L 52.553463417443 0.5 L 52.553463417443 -0.5 L 32.5 -0.5 Z M 81.076900917443 0.5 L 101.130364334886 0.5 L 101.130364334886 3.5 L 108.130364334886 0 L 101.130364334886 -3.5 L 101.130364334886 -0.5 L 81.076900917443 -0.5 Z"/><text text-anchor="middle" pointer-events="none" font-size="8px" fill="#000000" x="66.815182167443" y="3" transform="rotate(180 66.815182167443 0)" font-family="sans-serif">TOOK</text></g><g class="relationship" transform="translate(8.575715379364212 91.99928400887649) rotate(230.9572539906955)"><path class="outline" fill="#A5ABB6" stroke="none" d="M 32.5 0.5 L 84.79166538338634 0.5 L 84.79166538338634 -0.5 L 32.5 -0.5 Z M 159.54557163338634 0.5 L 211.8372370167727 0.5 L 211.8372370167727 3.5 L 218.8372370167727 0 L 211.8372370167727 -3.5 L 211.8372370167727 -0.5 L 159.54557163338634 -0.5 Z"/><text text-anchor="middle" pointer-events="none" font-size="8px" fill="#000000" x="122.16861850838634" y="3" transform="rotate(180 122.16861850838634 0)" font-family="sans-serif">PARTICIPATED_IN</text></g><g class="relationship" transform="translate(-373.3436102504751 208.94237004427873) rotate(262.3002821048198)"><path class="outline" fill="#A5ABB6" stroke="none" d="M 32.5 0.5 L 106.60869425045334 0.5 L 106.60869425045334 -0.5 L 32.5 -0.5 Z M 157.50322550045334 0.5 L 231.61191975090668 0.5 L 231.61191975090668 3.5 L 238.61191975090668 0 L 231.61191975090668 -3.5 L 231.61191975090668 -0.5 L 157.50322550045334 -0.5 Z"/><text text-anchor="middle" pointer-events="none" font-size="8px" fill="#000000" x="132.05595987545334" y="3" transform="rotate(180 132.05595987545334 0)" font-family="sans-serif">FOLLOWED</text></g><g class="relationship" transform="translate(-410.6723991688772 -67.15754546670263) rotate(442.3002821048198)"><path class="outline" fill="#A5ABB6" stroke="none" d="M 34.39101615137755,-20.433012701892217 L 34.89101615137755,-19.566987298107776 A 208.97255901811022 208.97255901811022 0 0 1 114.2395978652463,-46.04656191113244 L 114.11930600533273,-47.039300481169164 A 209.97255901811022 209.97255901811022 0 0 0 34.39101615137755,-20.433012701892217 Z M 165.00990931641124,-46.99356498323823 L 164.88783329954578,-46.00104422974931 A 208.97255901811022 208.97255901811022 0 0 1 244.18869237298028,-19.378891012841326 L 242.68402500605393,-16.783515102706744 L 250.49534739111536,-16.30056314170225 L 246.1949155288821,-22.8393922263541 L 244.69024816195574,-20.24401631621952 A 209.97255901811022 209.97255901811022 0 0 0 165.00990931641124,-46.99356498323823"/><text text-anchor="middle" pointer-events="none" font-size="8px" fill="#000000" x="139.56554903723276" y="-45.063916920845344" font-family="sans-serif">FOLLOWED</text></g><g class="relationship" transform="translate(-410.6723991688772 -67.15754546670263) rotate(486.508801707683)"><path class="outline" fill="#A5ABB6" stroke="none" d="M 10.835724717245366 38.50762352901147 L 21.188486521346196 77.14465658057419 A 21.935935394489817 21.935935394489817 0 1 1 -21.188486521346196 77.14465658057419 L -12.647458032963009 45.26910431303495 L -8.783754727806736 46.30438049344503 L -10.352761804100831 38.63703305156273 L -15.545235511830214 44.49264717772739 L -11.68153220667394 45.52792335813747 L -20.22256069505713 77.40347562567672 A 20.935935394489817 20.935935394489817 0 1 0 20.22256069505713 77.40347562567672 L 9.869798890956297 38.76644257411399 Z"/><text text-anchor="middle" pointer-events="none" font-size="8px" fill="#000000" x="0" y="113.75802982729645" transform="rotate(180 0 110.75802982729645)" font-family="sans-serif">FOLLOWED</text></g><g class="relationship" transform="translate(7.36644102685861 240.12471225644794) rotate(216.31799624155678)"><path class="outline" fill="#A5ABB6" stroke="none" d="M 38.50762352901147,-10.835724717245364 L 38.766442574113995,-9.869798890956295 A 850.242306373784 850.242306373784 0 0 1 230.46745908278393,-38.368065178756524 L 230.43410637247985,-39.367508822347986 A 851.242306373784 851.242306373784 0 0 0 38.50762352901147,-10.835724717245364 Z M 281.3506534612347,-39.54302188534291 L 281.3241917723865,-38.54337205714137 A 850.242306373784 850.242306373784 0 0 1 473.2171215153685,-11.367382166749 L 472.4606602966336,-8.464320606163328 L 480.1170086931909,-10.086149583131858 L 474.22573647368165,-15.238130914196562 L 473.46927525494675,-12.33506935361089 A 851.242306373784 851.242306373784 0 0 0 281.3506534612347,-39.54302188534291"/><text text-anchor="middle" pointer-events="none" font-size="8px" fill="#000000" x="255.89279086577682" y="-36.33604858641468" transform="rotate(180 255.89279086577682 -39.33604858641468)" font-family="sans-serif">FOLLOWED</text></g><g class="relationship" transform="translate(7.36644102685861 240.12471225644794) rotate(184.68240173667942)"><path class="outline" fill="#A5ABB6" stroke="none" d="M 38.50762352901147,-10.835724717245364 L 38.766442574113995,-9.869798890956295 A 588.3572047506693 588.3572047506693 0 0 1 165.8261393662644,-29.376877506757296 L 165.78327704909216,-30.375958495349664 A 589.3572047506693 589.3572047506693 0 0 0 38.50762352901147,-10.835724717245364 Z M 216.7051670791137,-30.358685248653956 L 216.66162697408842,-29.359633568682284 A 588.3572047506693 588.3572047506693 0 0 1 343.70806051072617,-9.766359450839783 L 342.9296376404468,-6.86910940380794 L 350.59804776551374,-8.432914428026542 L 344.7459576710987,-13.629359513548906 L 343.96753480081935,-10.732109466517063 A 589.3572047506693 589.3572047506693 0 0 0 216.7051670791137,-30.358685248653956"/><text text-anchor="middle" pointer-events="none" font-size="8px" fill="#000000" x="191.24423910222563" y="-27.41755061162155" transform="rotate(180 191.24423910222563 -30.41755061162155)" font-family="sans-serif">FOLLOWED</text></g><g class="relationship" transform="translate(-410.6723991688772 -67.15754546670263) rotate(396.3179962415568)"><path class="outline" fill="#A5ABB6" stroke="none" d="M 38.50762352901147,-10.835724717245364 L 38.766442574113995,-9.869798890956295 A 850.242306373784 850.242306373784 0 0 1 230.46745908278393,-38.368065178756524 L 230.43410637247985,-39.367508822347986 A 851.242306373784 851.242306373784 0 0 0 38.50762352901147,-10.835724717245364 Z M 281.3506534612347,-39.54302188534291 L 281.3241917723865,-38.54337205714137 A 850.242306373784 850.242306373784 0 0 1 473.2171215153685,-11.367382166749 L 472.4606602966336,-8.464320606163328 L 480.1170086931909,-10.086149583131858 L 474.22573647368165,-15.238130914196562 L 473.46927525494675,-12.33506935361089 A 851.242306373784 851.242306373784 0 0 0 281.3506534612347,-39.54302188534291"/><text text-anchor="middle" pointer-events="none" font-size="8px" fill="#000000" x="255.89279086577682" y="-36.33604858641468" font-family="sans-serif">FOLLOWED</text></g><g class="relationship" transform="translate(7.36644102685861 240.12471225644794) rotate(317.5750728587084)"><path class="outline" fill="#A5ABB6" stroke="none" d="M 10.835724717245366 38.50762352901147 L 21.188486521346196 77.14465658057419 A 21.935935394489817 21.935935394489817 0 1 1 -21.188486521346196 77.14465658057419 L -12.647458032963009 45.26910431303495 L -8.783754727806736 46.30438049344503 L -10.352761804100831 38.63703305156273 L -15.545235511830214 44.49264717772739 L -11.68153220667394 45.52792335813747 L -20.22256069505713 77.40347562567672 A 20.935935394489817 20.935935394489817 0 1 0 20.22256069505713 77.40347562567672 L 9.869798890956297 38.76644257411399 Z"/><text text-anchor="middle" pointer-events="none" font-size="8px" fill="#000000" x="0" y="113.75802982729645" font-family="sans-serif">FOLLOWED</text></g><g class="relationship" transform="translate(-373.3436102504751 208.94237004427873) rotate(364.6824017366794)"><path class="outline" fill="#A5ABB6" stroke="none" d="M 31.26317983184346,-8.894581878976458 L 31.52199887694598,-7.92865605268739 A 610.3166328683819 610.3166328683819 0 0 1 158.28682627813276,-27.926848447210887 L 158.23571061284053,-28.92554118712735 A 611.3166328683819 611.3166328683819 0 0 0 31.26317983184346,-8.894581878976458 Z M 209.15488303441003,-29.408111299654934 L 209.1227044301146,-28.408629165034426 A 610.3166328683819 610.3166328683819 0 0 1 336.2437814795354,-10.816558937335758 L 335.52238438873195,-7.904586025823654 L 343.1586177881976,-9.618627877379652 L 337.2056442672734,-14.699189486018561 L 336.4842471764699,-11.787216574506457 A 611.3166328683819 611.3166328683819 0 0 0 209.15488303441003,-29.408111299654934"/><text text-anchor="middle" pointer-events="none" font-size="8px" fill="#000000" x="183.69500837820416" y="-26.197262032409753" font-family="sans-serif">FOLLOWED</text></g><g class="relationship" transform="translate(-373.3436102504751 208.94237004427873) rotate(415.28973009281515)"><path class="outline" fill="#A5ABB6" stroke="none" d="M 8.894581878976458 31.263179831843463 L 19.247343683077286 69.90021288340618 A 19.926316451256394 19.926316451256394 0 1 1 -19.247343683077286 69.90021288340618 L -10.706315194694104 38.024660615866935 L -6.842611889537831 39.05993679627702 L -8.411618965831924 31.392589354394723 L -13.60409267356131 37.248203480559376 L -9.740389368405035 38.283479660969455 L -18.28141785678822 70.15903192850871 A 18.926316451256394 18.926316451256394 0 1 0 18.28141785678822 70.15903192850871 L 7.92865605268739 31.521998876945982 Z"/><text text-anchor="middle" pointer-events="none" font-size="8px" fill="#000000" x="0" y="103.98383953098741" font-family="sans-serif">FOLLOWED</text></g><g class="relationship" transform="translate(8.575715379364212 91.99928400887649) rotate(338.85188593337716)"><path class="outline" fill="#A5ABB6" stroke="none" d="M 31.26317983184346,-8.894581878976458 L 31.52199887694598,-7.92865605268739 A 439.1953508957663 439.1953508957663 0 0 1 94.78006462801773,-19.990833244080477 L 94.66527731189879,-20.98422333465834 A 440.1953508957663 440.1953508957663 0 0 0 31.26317983184346,-8.894581878976458 Z M 196.11348856809062,-20.93892095926867 L 195.99781408798714,-19.945633782943105 A 439.1953508957663 439.1953508957663 0 0 1 259.24508172091106,-7.826964791144759 L 258.4660368520682,-4.9298819320726075 L 266.1347825368865,-6.492040573690201 L 260.2838082127015,-11.689741936574293 L 259.50476334385866,-8.792659077502142 A 440.1953508957663 440.1953508957663 0 0 0 196.11348856809062,-20.93892095926867"/><text text-anchor="middle" pointer-events="none" font-size="8px" fill="#000000" x="145.39046908136018" y="-20.39383089169627" font-family="sans-serif">CONNECTED_THROUGH</text></g><g class="relationship" transform="translate(8.575715379364212 91.99928400887649) rotate(417.5102203029191)"><path class="outline" fill="#A5ABB6" stroke="none" d="M 32.5 0.5 L 74.37452909527458 0.5 L 74.37452909527458 -0.5 L 32.5 -0.5 Z M 175.93312284527457 0.5 L 217.80765194054916 0.5 L 217.80765194054916 3.5 L 224.80765194054916 0 L 217.80765194054916 -3.5 L 217.80765194054916 -0.5 L 175.93312284527457 -0.5 Z"/><text text-anchor="middle" pointer-events="none" font-size="8px" fill="#000000" x="125.15382597027458" y="3" font-family="sans-serif">CONNECTED_THROUGH</text></g><g class="relationship" transform="translate(8.575715379364212 91.99928400887649) rotate(383.4151013403597)"><path class="outline" fill="#A5ABB6" stroke="none" d="M 32.5 0.5 L 108.79319893062626 0.5 L 108.79319893062626 -0.5 L 32.5 -0.5 Z M 210.35179268062626 0.5 L 286.6449916112525 0.5 L 286.6449916112525 3.5 L 293.6449916112525 0 L 286.6449916112525 -3.5 L 286.6449916112525 -0.5 L 210.35179268062626 -0.5 Z"/><text text-anchor="middle" pointer-events="none" font-size="8px" fill="#000000" x="159.57249580562626" y="3" font-family="sans-serif">CONNECTED_THROUGH</text></g><g class="relationship" transform="translate(8.575715379364212 91.99928400887649) rotate(366.40799606331126)"><path class="outline" fill="#A5ABB6" stroke="none" d="M 32.5 0.5 L 116.06019906127514 0.5 L 116.06019906127514 -0.5 L 32.5 -0.5 Z M 217.61879281127514 0.5 L 301.1789918725503 0.5 L 301.1789918725503 3.5 L 308.1789918725503 0 L 301.1789918725503 -3.5 L 301.1789918725503 -0.5 L 217.61879281127514 -0.5 Z"/><text text-anchor="middle" pointer-events="none" font-size="8px" fill="#000000" x="166.83949593627514" y="3" font-family="sans-serif">CONNECTED_THROUGH</text></g><g class="relationship" transform="translate(8.575715379364212 91.99928400887649) rotate(374.2491044121808)"><path class="outline" fill="#A5ABB6" stroke="none" d="M 32.5 0.5 L 172.04354702940864 0.5 L 172.04354702940864 -0.5 L 32.5 -0.5 Z M 273.6021407794086 0.5 L 413.1456878088173 0.5 L 413.1456878088173 3.5 L 420.1456878088173 0 L 413.1456878088173 -3.5 L 413.1456878088173 -0.5 L 273.6021407794086 -0.5 Z"/><text text-anchor="middle" pointer-events="none" font-size="8px" fill="#000000" x="222.82284390440864" y="3" font-family="sans-serif">CONNECTED_THROUGH</text></g><g class="relationship" transform="translate(-168.2321665615043 319.28737188904574) rotate(348.07929994823724)"><path class="outline" fill="#A5ABB6" stroke="none" d="M 10.835724717245366 38.50762352901147 L 21.188486521346196 77.14465658057419 A 21.935935394489817 21.935935394489817 0 1 1 -21.188486521346196 77.14465658057419 L -12.647458032963009 45.26910431303495 L -8.783754727806736 46.30438049344503 L -10.352761804100831 38.63703305156273 L -15.545235511830214 44.49264717772739 L -11.68153220667394 45.52792335813747 L -20.22256069505713 77.40347562567672 A 20.935935394489817 20.935935394489817 0 1 0 20.22256069505713 77.40347562567672 L 9.869798890956297 38.76644257411399 Z"/><text text-anchor="middle" pointer-events="none" font-size="8px" fill="#000000" x="0" y="113.75802982729645" font-family="sans-serif">NEXT</text></g><g class="relationship" transform="translate(-168.2321665615043 319.28737188904574) rotate(208.27917808081048)"><path class="outline" fill="#A5ABB6" stroke="none" d="M 40 0.5 L 103.03666164773844 0.5 L 103.03666164773844 -0.5 L 40 -0.5 Z M 130.37259914773844 0.5 L 193.40926079547688 0.5 L 193.40926079547688 3.5 L 200.40926079547688 0 L 193.40926079547688 -3.5 L 193.40926079547688 -0.5 L 130.37259914773844 -0.5 Z"/><text text-anchor="middle" pointer-events="none" font-size="8px" fill="#000000" x="116.70463039773844" y="3" transform="rotate(180 116.70463039773844 0)" font-family="sans-serif">NEXT</text></g><g class="relationship" transform="translate(-373.3436102504751 208.94237004427873) rotate(473.79500609881745)"><path class="outline" fill="#A5ABB6" stroke="none" d="M 8.894581878976458 31.263179831843463 L 19.247343683077286 69.90021288340618 A 19.926316451256394 19.926316451256394 0 1 1 -19.247343683077286 69.90021288340618 L -10.706315194694104 38.024660615866935 L -6.842611889537831 39.05993679627702 L -8.411618965831924 31.392589354394723 L -13.60409267356131 37.248203480559376 L -9.740389368405035 38.283479660969455 L -18.28141785678822 70.15903192850871 A 18.926316451256394 18.926316451256394 0 1 0 18.28141785678822 70.15903192850871 L 7.92865605268739 31.521998876945982 Z"/><text text-anchor="middle" pointer-events="none" font-size="8px" fill="#000000" x="0" y="103.98383953098741" transform="rotate(180 0 100.98383953098741)" font-family="sans-serif">NEXT</text></g><g class="relationship" transform="translate(-373.3436102504751 208.94237004427873) rotate(388.2791780808105)"><path class="outline" fill="#A5ABB6" stroke="none" d="M 27.89582562299426,16.683012701892217 L 28.39582562299426,15.816987298107778 A 171.168257187702 171.168257187702 0 0 0 95.33478044856687,37.73065573883099 L 95.22585152637875,38.724705279805136 A 172.168257187702 172.168257187702 0 0 1 27.89582562299426,16.683012701892217 Z M 122.60051413815503,39.53323189958371 L 122.55044358472013,38.53448621639967 A 171.168257187702 171.168257187702 0 0 0 190.66604942101486,20.60973296218358 L 189.32200181900984,17.92765614681371 L 197.1482365905454,17.920634693400185 L 192.4581128903549,24.185835382676736 L 191.11406528834988,21.503758567306868 A 172.168257187702 172.168257187702 0 0 1 122.60051413815503,39.53323189958371"/><text text-anchor="middle" pointer-events="none" font-size="8px" fill="#000000" x="108.91184226103569" y="42.17435693469568" font-family="sans-serif">NEXT</text></g><g class="relationship" transform="translate(167.26859804483388 -141.45321535423403) rotate(185.14964613093377)"><path class="outline" fill="#A5ABB6" stroke="none" d="M 32.5 0.5 L 69.4685399397632 0.5 L 69.4685399397632 -0.5 L 32.5 -0.5 Z M 115.0310399397632 0.5 L 151.9995798795264 0.5 L 151.9995798795264 3.5 L 158.9995798795264 0 L 151.9995798795264 -3.5 L 151.9995798795264 -0.5 L 115.0310399397632 -0.5 Z"/><text text-anchor="middle" pointer-events="none" font-size="8px" fill="#000000" x="92.2497899397632" y="3" transform="rotate(180 92.2497899397632 0)" font-family="sans-serif">COVERED</text></g><g class="relationship" transform="translate(8.575715379364212 91.99928400887649) rotate(400.1842742284919)"><path class="outline" fill="#A5ABB6" stroke="none" d="M 32.5 0.5 L 110.73631189498205 0.5 L 110.73631189498205 -0.5 L 32.5 -0.5 Z M 133.18553064498207 0.5 L 211.4218425399641 0.5 L 211.4218425399641 3.5 L 218.4218425399641 0 L 211.4218425399641 -3.5 L 211.4218425399641 -0.5 L 133.18553064498207 -0.5 Z"/><text text-anchor="middle" pointer-events="none" font-size="8px" fill="#000000" x="121.96092126998205" y="3" font-family="sans-serif">HAS</text></g><g class="relationship" transform="translate(-154.46586339772307 -109.03344679969558) rotate(530.7173213105461)"><path class="outline" fill="#A5ABB6" stroke="none" d="M 40 0.5 L 99.52380409364619 0.5 L 99.52380409364619 -0.5 L 40 -0.5 Z M 153.0823978436462 0.5 L 212.60620193729238 0.5 L 212.60620193729238 3.5 L 219.60620193729238 0 L 212.60620193729238 -3.5 L 212.60620193729238 -0.5 L 153.0823978436462 -0.5 Z"/><text text-anchor="middle" pointer-events="none" font-size="8px" fill="#000000" x="126.30310096864619" y="3" transform="rotate(180 126.30310096864619 0)" font-family="sans-serif">TRIGGERED</text></g><g class="relationship" transform="translate(-154.46586339772307 -109.03344679969558) rotate(484.54146947218294)"><path class="outline" fill="#A5ABB6" stroke="none" d="M 40 0.5 L 166.48371315601457 0.5 L 166.48371315601457 -0.5 L 40 -0.5 Z M 220.04230690601457 0.5 L 346.52602006202915 0.5 L 346.52602006202915 3.5 L 353.52602006202915 0 L 346.52602006202915 -3.5 L 346.52602006202915 -0.5 L 220.04230690601457 -0.5 Z"/><text text-anchor="middle" pointer-events="none" font-size="8px" fill="#000000" x="193.26301003101457" y="3" transform="rotate(180 193.26301003101457 0)" font-family="sans-serif">TRIGGERED</text></g><g class="relationship" transform="translate(434.6017861881486 47.14088081321438) rotate(215.2016137706662)"><path class="outline" fill="#A5ABB6" stroke="none" d="M 25 0.5 L 128.73513819824734 0.5 L 128.73513819824734 -0.5 L 25 -0.5 Z M 183.92654444824734 0.5 L 287.6616826464947 0.5 L 287.6616826464947 3.5 L 294.6616826464947 0 L 287.6616826464947 -3.5 L 287.6616826464947 -0.5 L 183.92654444824734 -0.5 Z"/><text text-anchor="middle" pointer-events="none" font-size="8px" fill="#000000" x="156.33084132324734" y="3" transform="rotate(180 156.33084132324734 0)" font-family="sans-serif">GENERATED</text></g><g class="relationship" transform="translate(279.30295067457376 -12.726939542818336) rotate(228.965967526163)"><path class="outline" fill="#A5ABB6" stroke="none" d="M 25 0.5 L 50.480363017535794 0.5 L 50.480363017535794 -0.5 L 25 -0.5 Z M 105.6717692675358 0.5 L 131.1521322850716 0.5 L 131.1521322850716 3.5 L 138.1521322850716 0 L 131.1521322850716 -3.5 L 131.1521322850716 -0.5 L 105.6717692675358 -0.5 Z"/><text text-anchor="middle" pointer-events="none" font-size="8px" fill="#000000" x="78.0760661425358" y="3" transform="rotate(180 78.0760661425358 0)" font-family="sans-serif">GENERATED</text></g><g class="relationship" transform="translate(279.30295067457376 -12.726939542818336) rotate(518.8518859333772)"><path class="outline" fill="#A5ABB6" stroke="none" d="M 24.018736134675446,-6.953439040707552 L 24.277555179777966,-5.987513214418485 A 460.7468285107112 460.7468285107112 0 0 1 97.9244035188853,-19.42469858404337 L 97.82542680753721,-20.41978833407137 A 461.7468285107112 461.7468285107112 0 0 0 24.018736134675446,-6.953439040707552 Z M 177.88362916868743,-21.40718643125041 L 177.80922471655387,-20.40995828408313 A 460.7468285107112 460.7468285107112 0 0 1 251.7650755647594,-8.79323128121723 L 251.0603232398502,-5.877185300692393 L 258.6866415734689,-7.6348168531831915 L 252.70474533130502,-12.681292588583677 L 251.9999930063958,-9.76524660805884 A 461.7468285107112 461.7468285107112 0 0 0 177.88362916868743,-21.40718643125041"/><text text-anchor="middle" pointer-events="none" font-size="8px" fill="#000000" x="137.83925274758795" y="-19.15200333737971" transform="rotate(180 137.83925274758795 -22.15200333737971)" font-family="sans-serif">COLOCATED_WITH</text></g><g class="relationship" transform="translate(434.6017861881486 47.14088081321438) rotate(533.9891912107489)"><path class="outline" fill="#A5ABB6" stroke="none" d="M 25 0.5 L 166.9015589952209 0.5 L 166.9015589952209 -0.5 L 25 -0.5 Z M 246.9796839952209 0.5 L 388.8812429904418 0.5 L 388.8812429904418 3.5 L 395.8812429904418 0 L 388.8812429904418 -3.5 L 388.8812429904418 -0.5 L 246.9796839952209 -0.5 Z"/><text text-anchor="middle" pointer-events="none" font-size="8px" fill="#000000" x="206.9406214952209" y="3" transform="rotate(180 206.9406214952209 0)" font-family="sans-serif">COLOCATED_WITH</text></g></g><g class="layer nodes"><g class="node" transform="translate(279.30295067457376,-12.726939542818336)"><circle class="outline" cx="0" cy="0" r="25" fill="#569480" stroke="#447666" stroke-width="2px"/><text text-anchor="middle" pointer-events="none" font-family="sans-serif" dy="1.5625" font-size="25" fill="#FFFFFF"/><text text-anchor="middle" pointer-events="none" y="5" font-size="10px" fill="#FFFFFF" font-family="sans-serif"> Wireless</text></g><g class="node" transform="translate(194.54346875389405,249.06674763639268)"><circle class="outline" cx="0" cy="0" r="25" fill="#A5ABB6" stroke="#9AA1AC" stroke-width="2px"/><text text-anchor="middle" pointer-events="none" font-family="sans-serif" dy="1.5625" font-size="25" fill="#FFFFFF"/><text text-anchor="middle" pointer-events="none" y="5" font-size="10px" fill="#FFFFFF" font-family="sans-serif"> NtwkID</text></g><g class="node" transform="translate(-15.988298005326243,-157.96852479435728)"><circle class="outline" cx="0" cy="0" r="25" fill="#DA7194" stroke="#cc3c6c" stroke-width="2px"/><text text-anchor="middle" pointer-events="none" font-family="sans-serif" dy="1.5625" font-size="25" fill="#FFFFFF"/><text text-anchor="middle" pointer-events="none" y="5" font-size="10px" fill="#FFFFFF" font-family="sans-serif"> Message</text></g><g class="node" transform="translate(7.36644102685861,240.12471225644794)"><circle class="outline" cx="0" cy="0" r="40" fill="#F16667" stroke="#eb2728" stroke-width="2px"/><text text-anchor="middle" pointer-events="none" font-family="sans-serif" dy="2.5" font-size="40" fill="#FFFFFF"/><text text-anchor="middle" pointer-events="none" y="5" font-size="10px" fill="#FFFFFF" font-family="sans-serif"> SensorState</text></g><g class="node" transform="translate(167.26859804483388,-141.45321535423403)"><circle class="outline" cx="0" cy="0" r="32.5" fill="#4C8EDA" stroke="#2870c2" stroke-width="2px"/><text text-anchor="middle" pointer-events="none" font-family="sans-serif" dy="2.03125" font-size="32.5" fill="#FFFFFF"/><text text-anchor="middle" pointer-events="none" y="5" font-size="10px" fill="#FFFFFF" font-family="sans-serif"> QoSReport</text></g><g class="node" transform="translate(440.02638802123124,201.56661696749836)"><circle class="outline" cx="0" cy="0" r="25" fill="#A5ABB6" stroke="#9AA1AC" stroke-width="2px"/><text text-anchor="middle" pointer-events="none" font-family="sans-serif" dy="1.5625" font-size="25" fill="#FFFFFF"/><text text-anchor="middle" pointer-events="none" y="5" font-size="10px" fill="#FFFFFF" font-family="sans-serif"> Adapter</text></g><g class="node" transform="translate(434.6017861881486,47.14088081321438)"><circle class="outline" cx="0" cy="0" r="25" fill="#57C7E3" stroke="#23b3d7" stroke-width="2px"/><text text-anchor="middle" pointer-events="none" font-family="sans-serif" dy="1.5625" font-size="25" fill="#FFFFFF"/><text text-anchor="middle" pointer-events="none" y="5" font-size="10px" fill="#FFFFFF" font-family="sans-serif"> Sniffer</text></g><g class="node" transform="translate(339.6731225705074,129.1845979985586)"><circle class="outline" cx="0" cy="0" r="25" fill="#A5ABB6" stroke="#9AA1AC" stroke-width="2px"/><text text-anchor="middle" pointer-events="none" font-family="sans-serif" dy="1.5625" font-size="25" fill="#FFFFFF"/><text text-anchor="middle" pointer-events="none" y="5" font-size="10px" fill="#FFFFFF" font-family="sans-serif"> AP</text></g><g class="node" transform="translate(300.98026589450706,218.6255432009275)"><circle class="outline" cx="0" cy="0" r="25" fill="#A5ABB6" stroke="#9AA1AC" stroke-width="2px"/><text text-anchor="middle" pointer-events="none" font-family="sans-serif" dy="1.5625" font-size="25" fill="#FFFFFF"/><text text-anchor="middle" pointer-events="none" y="5" font-size="10px" fill="#FFFFFF" font-family="sans-serif"> UE</text></g><g class="node" transform="translate(-154.46586339772307,-109.03344679969558)"><circle class="outline" cx="0" cy="0" r="40" fill="#F79767" stroke="#f36924" stroke-width="2px"/><text text-anchor="middle" pointer-events="none" font-family="sans-serif" dy="2.5" font-size="40" fill="#FFFFFF"/><text text-anchor="middle" pointer-events="none" y="5" font-size="10px" fill="#FFFFFF" font-family="sans-serif"> Transaction</text></g><g class="node" transform="translate(-373.3436102504751,208.94237004427873)"><circle class="outline" cx="0" cy="0" r="32.5" fill="#8DCC93" stroke="#5db665" stroke-width="2px"/><text text-anchor="middle" pointer-events="none" font-family="sans-serif" dy="2.03125" font-size="32.5" fill="#604A0E"/><text text-anchor="middle" pointer-events="none" y="5" font-size="10px" fill="#604A0E" font-family="sans-serif"> PhyAction</text></g><g class="node" transform="translate(8.575715379364212,91.99928400887649)"><circle class="outline" cx="0" cy="0" r="32.5" fill="#FFE081" stroke="#9AA1AC" stroke-width="2px"/><text text-anchor="middle" pointer-events="none" font-family="sans-serif" dy="2.03125" font-size="32.5" fill="#FFFFFF"/><text text-anchor="middle" pointer-events="none" y="5" font-size="10px" fill="#FFFFFF" font-family="sans-serif"> Actor</text></g><g class="node" transform="translate(142.75968512475276,302.70885956589575)"><circle class="outline" cx="0" cy="0" r="25" fill="#A5ABB6" stroke="#9AA1AC" stroke-width="2px"/><text text-anchor="middle" pointer-events="none" font-family="sans-serif" dy="1.5625" font-size="25" fill="#FFFFFF"/><text text-anchor="middle" pointer-events="none" y="5" font-size="10px" fill="#FFFFFF" font-family="sans-serif"> Ethernet</text></g><g class="node" transform="translate(-410.6723991688772,-67.15754546670263)"><circle class="outline" cx="0" cy="0" r="40" fill="#57C7E3" stroke="#23b3d7" stroke-width="2px"/><text text-anchor="middle" pointer-events="none" font-family="sans-serif" dy="2.5" font-size="40" fill="#FFFFFF"/><text text-anchor="middle" pointer-events="none" y="5" font-size="10px" fill="#FFFFFF" font-family="sans-serif"> RouteState</text></g><g class="node" transform="translate(-168.2321665615043,319.28737188904574)"><circle class="outline" cx="0" cy="0" r="40" fill="#D9C8AE" stroke="#c0a378" stroke-width="2px"/><text text-anchor="middle" pointer-events="none" font-family="sans-serif" dy="2.5" font-size="40" fill="#604A0E"/><text text-anchor="middle" pointer-events="none" y="5" font-size="10px" fill="#604A0E" font-family="sans-serif"> URSchedule</text></g></g></svg>